#!OML:ASF H:\MichaelJackson\Top Level 1\Subject 1\Session 1\male.ASF
:FULLY-SPECIFIED
:DEGREES
288
root 23.0753 16.5452 11.3531 -316.349 -82.8435 -39.637
lowerback 7.09352 1.65085 2.71212
upperback 2.23961 2.3403 0.458853
thorax -1.57161 1.14552 -1.24066
lowerneck -9.52537 -1.18845 5.1193
upperneck 14.8694 -1.79395 -4.66086
head 5.97165 -0.986518 -2.4661
rclavicle 1.87355e-014 1.37161e-014
rhumerus -50.5276 -8.02839 -80.3601
rradius 64.0212
rwrist 15.9773
rhand -34.9982 -25.5191
rfingers 7.12502
rthumb -8.143 -55.3422
lclavicle 1.87355e-014 1.37161e-014
lhumerus -42.9701 -15.8959 90.7296
lradius 60.4961
lwrist 19.8859
lhand -10.811 14.2979
lfingers 7.12502
lthumb 15.2025 43.7194
rfemur -60.7238 17.212 -5.60119
rtibia 65.0428
rfoot 17.5567 2.28697
rtoes 24.4637
lfemur -22.9341 -26.552 -24.237
ltibia 40.6133
lfoot -20.1908 15.2967
ltoes 28.9355
289
root 23.0077 16.5423 11.3084 -322.134 -81.9881 -34.1306
lowerback 7.26726 1.81422 2.42255
upperback 2.2724 2.53932 0.344491
thorax -1.63388 1.24425 -1.21786
lowerneck -9.50014 -1.09122 5.27416
upperneck 15.1407 -1.68564 -4.64977
head 6.05729 -0.92412 -2.48445
rclavicle 4.1049e-014 5.1684e-015
rhumerus -50.5234 -8.14506 -80.7159
rradius 64.0158
rwrist 16.1376
rhand -35.5668 -26.1662
rfingers 7.12502
rthumb -8.69175 -55.9672
lclavicle 4.1049e-014 5.1684e-015
lhumerus -43.4053 -15.8602 90.9634
lradius 60.5619
lwrist 20.0518
lhand -10.3209 14.7134
lfingers 7.12502
lthumb 15.6747 44.0985
rfemur -61.5023 16.2426 -3.85908
rtibia 64.3539
rfoot 17.2228 2.78365
rtoes 24.342
lfemur -22.3195 -27.0654 -24.3354
ltibia 40.6029
lfoot -20.384 14.6609
ltoes 28.6305
290
root 22.937 16.5411 11.2631 -327.268 -81.062 -29.2269
lowerback 7.3961 1.97729 2.08595
upperback 2.28662 2.73238 0.196173
thorax -1.69223 1.34034 -1.20281
lowerneck -9.48513 -1.00993 5.41728
upperneck 15.4076 -1.6032 -4.60338
head 6.14283 -0.87185 -2.49152
rclavicle -2.08724e-014 -7.95139e-016
rhumerus -50.5202 -8.337 -81.1054
rradius 64.0017
rwrist 16.3081
rhand -36.0834 -26.8322
rfingers 7.12502
rthumb -9.19027 -56.612
lclavicle -2.08724e-014 -7.95139e-016
lhumerus -43.7958 -15.8008 91.1339
lradius 60.5987
lwrist 20.1927
lhand -9.80242 15.1378
lfingers 7.12502
lthumb 16.1739 44.483
rfemur -62.1684 15.2635 -2.03399
rtibia 63.5916
rfoot 17.0194 3.68163
rtoes 23.7377
lfemur -21.7332 -27.2189 -24.464
ltibia 40.5239
lfoot -20.6635 13.6377
ltoes 28.3565
291
root 22.8626 16.541 11.218 -331.838 -80.0745 -24.8386
lowerback 7.4755 2.14012 1.70992
upperback 2.28535 2.91993 0.0133954
thorax -1.74057 1.43407 -1.19975
lowerneck -9.47773 -0.940794 5.55001
upperneck 15.6625 -1.5397 -4.53507
head 6.22551 -0.827256 -2.4911
rclavicle 3.03147e-014 -4.37326e-015
rhumerus -50.5206 -8.5851 -81.5276
rradius 63.98
rwrist 16.5121
rhand -36.5354 -27.4785
rfingers 7.12502
rthumb -9.62639 -57.2386
lclavicle 3.03147e-014 -4.37326e-015
lhumerus -44.1412 -15.6975 91.2409
lradius 60.6097
lwrist 20.2901
lhand -9.27434 15.5408
lfingers 7.12502
lthumb 16.6823 44.8439
rfemur -62.7294 14.3144 -0.188792
rtibia 62.7523
rfoot 16.9077 5.05483
rtoes 22.4435
lfemur -21.1801 -27.0678 -24.6216
ltibia 40.3901
lfoot -21.0206 12.2489
ltoes 28.1584
292
root 22.7844 16.5413 11.1739 -335.903 -79.0311 -20.9101
lowerback 7.50563 2.30647 1.30655
upperback 2.27463 3.108 -0.200929
thorax -1.77211 1.52839 -1.21246
lowerneck -9.48531 -0.888418 5.65598
upperneck 15.9127 -1.4993 -4.44453
head 6.30877 -0.793298 -2.48092
rclavicle -3.97569e-014 1.03368e-014
rhumerus -50.5239 -8.8658 -81.9882
rradius 63.9565
rwrist 16.725
rhand -36.9484 -28.1235
rfingers 7.12502
rthumb -10.0249 -57.8647
lclavicle -3.97569e-014 1.03368e-014
lhumerus -44.4338 -15.5556 91.2883
lradius 60.5946
lwrist 20.3435
lhand -8.76045 15.9089
lfingers 7.12502
lthumb 17.177 45.1697
rfemur -63.1874 13.4345 1.6264
rtibia 61.8444
rfoot 16.8367 6.8954
rtoes 20.4036
lfemur -20.6551 -26.694 -24.8085
ltibia 40.2136
lfoot -21.4239 10.5727
ltoes 27.9661
293
root 22.7024 16.5421 11.1315 -339.471 -77.9242 -17.4534
lowerback 7.49573 2.47158 0.88863
upperback 2.2601 3.29205 -0.428811
thorax -1.78654 1.62084 -1.22914
lowerneck -9.48986 -0.85545 5.73053
upperneck 16.1503 -1.48146 -4.34823
head 6.38677 -0.771284 -2.4651
rclavicle -4.81059e-014 -2.78299e-015
rhumerus -50.5322 -9.13544 -82.4837
rradius 63.9345
rwrist 16.9296
rhand -37.3335 -28.7658
rfingers 7.12502
rthumb -10.3964 -58.4887
lclavicle -4.81059e-014 -2.78299e-015
lhumerus -44.6806 -15.3668 91.2959
lradius 60.5531
lwrist 20.3599
lhand -8.2623 16.2252
lfingers 7.12502
lthumb 17.6564 45.4436
rfemur -63.5257 12.6553 3.39044
rtibia 60.8867
rfoot 16.7646 9.07619
rtoes 17.8333
lfemur -20.1376 -26.1592 -25.0131
ltibia 40.0015
lfoot -21.8543 8.67061
ltoes 27.8129
294
root 22.6164 16.5437 11.0913 -342.553 -76.7584 -14.4688
lowerback 7.45215 2.63627 0.458856
upperback 2.24073 3.47441 -0.653431
thorax -1.78926 1.71245 -1.23432
lowerneck -9.49195 -0.840365 5.76996
upperneck 16.392 -1.48167 -4.25748
head 6.46496 -0.760253 -2.44665
rclavicle 2.20651e-014 -3.97569e-015
rhumerus -50.5601 -9.35089 -82.9985
rradius 63.9194
rwrist 17.1193
rhand -37.6772 -29.3835
rfingers 7.12502
rthumb -10.7279 -59.0896
lclavicle 2.20651e-014 -3.97569e-015
lhumerus -44.9071 -15.1148 91.289
lradius 60.49
lwrist 20.3233
lhand -7.80127 16.4788
lfingers 7.12502
lthumb 18.1 45.6566
rfemur -63.7326 12.0002 5.08608
rtibia 59.9071
rfoot 16.6715 11.3998
rtoes 15.0253
lfemur -19.6043 -25.5073 -25.2311
ltibia 39.7544
lfoot -22.2786 6.62937
ltoes 27.6588
295
root 22.5262 16.5464 11.0535 -345.249 -75.532 -11.8678
lowerback 7.37878 2.80023 0.0101141
upperback 2.21778 3.65485 -0.869866
thorax -1.78203 1.80304 -1.21895
lowerneck -9.48283 -0.848387 5.77009
upperneck 16.6473 -1.50691 -4.16695
head 6.54459 -0.763432 -2.42382
rclavicle 5.06901e-015 1.98785e-014
rhumerus -50.6107 -9.49229 -83.5349
rradius 63.9113
rwrist 17.2507
rhand -38.0001 -29.9774
rfingers 7.12502
rthumb -11.0393 -59.6671
lclavicle 5.06901e-015 1.98785e-014
lhumerus -45.1218 -14.8173 91.2789
lradius 60.4121
lwrist 20.256
lhand -7.43634 16.6636
lfingers 7.12502
lthumb 18.4511 45.8085
rfemur -63.7999 11.4651 6.6926
rtibia 58.9374
rfoot 16.552 13.6444
rtoes 12.2219
lfemur -19.039 -24.7869 -25.4704
ltibia 39.4747
lfoot -22.6697 4.51017
ltoes 27.4896
296
root 22.4317 16.5507 11.0183 -347.676 -74.2419 -9.54186
lowerback 7.27251 2.95944 -0.475891
upperback 2.19856 3.8272 -1.07857
thorax -1.75706 1.88949 -1.17223
lowerneck -9.47805 -0.877781 5.73419
upperneck 16.9367 -1.55734 -4.07028
head 6.63508 -0.780221 -2.39571
rclavicle 2.66371e-014 -1.03368e-014
rhumerus -50.6703 -9.54423 -84.0967
rradius 63.8995
rwrist 17.3118
rhand -38.303 -30.5043
rfingers 7.12502
rthumb -11.3315 -60.1781
lclavicle 2.66371e-014 -1.03368e-014
lhumerus -45.3212 -14.4825 91.2674
lradius 60.3175
lwrist 20.1826
lhand -7.20758 16.7762
lfingers 7.12502
lthumb 18.6712 45.9001
rfemur -63.7223 11.0405 8.17776
rtibia 58.0095
rfoot 16.4269 15.5752
rtoes 9.7067
lfemur -18.4272 -24.0477 -25.7506
ltibia 39.165
lfoot -23.005 2.37823
ltoes 27.2924
297
root 22.3334 16.5568 10.9852 -349.765 -72.8467 -7.55012
lowerback 7.12851 3.10275 -0.972314
upperback 2.17732 3.98004 -1.26717
thorax -1.71708 1.9661 -1.0952
lowerneck -9.4762 -0.93318 5.66345
upperneck 17.265 -1.64195 -3.95423
head 6.73757 -0.813751 -2.35907
rclavicle -8.11041e-014 3.73715e-014
rhumerus -50.734 -9.51654 -84.6726
rradius 63.8772
rwrist 17.3012
rhand -38.5709 -30.9412
rfingers 7.12502
rthumb -11.5899 -60.6007
lclavicle -8.11041e-014 3.73715e-014
lhumerus -45.5055 -14.1322 91.2656
lradius 60.209
lwrist 20.0983
lhand -7.1501 16.8187
lfingers 7.12502
lthumb 18.7265 45.9373
rfemur -63.5183 10.6996 9.55247
rtibia 57.1479
rfoot 16.3174 16.9912
rtoes 7.60928
lfemur -17.795 -23.33 -26.0236
ltibia 38.8354
lfoot -23.2642 0.256988
ltoes 27.0555
298
root 22.2313 16.564 10.9542 -351.545 -71.3242 -5.85413
lowerback 6.95389 3.21962 -1.48169
upperback 2.14216 4.1 -1.42945
thorax -1.6789 2.02629 -0.9798
lowerneck -9.4832 -1.01039 5.55983
upperneck 17.65 -1.75708 -3.8135
head 6.85939 -0.861618 -2.31267
rclavicle 6.01324e-014 -8.74653e-015
rhumerus -50.8118 -9.40363 -85.2496
rradius 63.8408
rwrist 17.2224
rhand -38.7904 -31.2171
rfingers 7.12502
rthumb -11.8015 -60.8646
lclavicle 6.01324e-014 -8.74653e-015
lhumerus -45.6869 -13.7683 91.2815
lradius 60.0902
lwrist 20.0044
lhand -7.23429 16.8165
lfingers 7.12502
lthumb 18.6455 45.9429
rfemur -63.212 10.427 10.785
rtibia 56.3656
rfoot 16.2444 17.7594
rtoes 5.9478
lfemur -17.163 -22.6895 -26.2821
ltibia 38.5024
lfoot -23.4393 -1.81906
ltoes 26.8245
299
root 22.1259 16.572 10.9257 -353.067 -69.6511 -4.3906
lowerback 6.74097 3.30358 -1.99892
upperback 2.09628 4.1794 -1.57524
thorax -1.63352 2.06627 -0.837749
lowerneck -9.50545 -1.11856 5.42835
upperneck 18.0736 -1.91775 -3.64122
head 6.99556 -0.930033 -2.25618
rclavicle 3.72721e-014 -1.43125e-014
rhumerus -50.8875 -9.24163 -85.8227
rradius 63.782
rwrist 17.0979
rhand -38.949 -31.2746
rfingers 7.12502
rthumb -11.9545 -60.9132
lclavicle 3.72721e-014 -1.43125e-014
lhumerus -45.8492 -13.4312 91.315
lradius 59.9645
lwrist 19.9304
lhand -7.46507 16.7743
lfingers 7.12502
lthumb 18.4235 45.9219
rfemur -62.8346 10.1961 11.8382
rtibia 55.665
rfoot 16.2101 17.8804
rtoes 4.53281
lfemur -16.5554 -22.1764 -26.533
ltibia 38.1881
lfoot -23.5385 -3.82082
ltoes 26.6526
300
root 22.0177 16.5807 10.9 -354.232 -67.8096 -3.2564
lowerback 6.49622 3.34173 -2.46331
upperback 2.03158 4.20571 -1.69853
thorax -1.58822 2.08005 -0.696278
lowerneck -9.53361 -1.24874 5.26727
upperneck 18.529 -2.11442 -3.42214
head 7.14359 -1.01303 -2.18341
rclavicle 2.90226e-014 -2.8625e-014
rhumerus -50.9676 -9.03989 -86.3906
rradius 63.701
rwrist 16.9563
rhand -39.0466 -31.1026
rfingers 7.12502
rthumb -12.0486 -60.7358
lclavicle 2.90226e-014 -2.8625e-014
lhumerus -45.9957 -13.1213 91.3565
lradius 59.8377
lwrist 19.8732
lhand -7.78529 16.7097
lfingers 7.12502
lthumb 18.1154 45.8861
rfemur -62.4154 10.0218 12.7159
rtibia 55.0309
rfoot 16.2489 17.4171
rtoes 3.21019
lfemur -15.9994 -21.8554 -26.7208
ltibia 37.9149
lfoot -23.5851 -5.71258
ltoes 26.5104
